<svg width="438" height="92.44295656968417" viewBox="0 0 320 67.53823311027155" class="css-1j8o68f"><defs id="SvgjsDefs1251"><linearGradient id="SvgjsLinearGradient1256"><stop id="SvgjsStop1257" stop-color="#8f5e25" offset="0"></stop><stop id="SvgjsStop1258" stop-color="#fbf4a1" offset="0.5"></stop><stop id="SvgjsStop1259" stop-color="#8f5e25" offset="1"></stop></linearGradient><linearGradient id="SvgjsLinearGradient1260"><stop id="SvgjsStop1261" stop-color="#8f5e25" offset="0"></stop><stop id="SvgjsStop1262" stop-color="#fbf4a1" offset="0.5"></stop><stop id="SvgjsStop1263" stop-color="#8f5e25" offset="1"></stop></linearGradient></defs><g id="SvgjsG1252" featurekey="odWo6G-0" transform="matrix(1.0140873751336448,0,0,1.0140873751336448,-0.8002911085383431,-16.83385081406214)" fill="url(#SvgjsLinearGradient1256)"><g xmlns="http://www.w3.org/2000/svg"><path fill="url(#SvgjsLinearGradient1256)" d="M96.8,35.8c-1.9-4.8-5.2-9-9.1-11.9c-0.1-0.1-0.2-0.1-0.4-0.1c-0.4-0.3-0.8-0.5-1.2-0.8   c-1.6-0.8-3.5-1.3-5.9-1.4c-0.2,0-0.5,0-0.7,0c-1.7,0-3.5,0.2-5.5,0.6c-2.2,0.5-4.3,1.1-6.2,2c-4.7,2.1-8.5,5.5-12,8.9   c-0.3,0.3-0.6,0.6-0.9,0.9c0-0.1-0.1-0.2-0.1-0.3L54.7,33c-0.4-0.8-0.7-1.7-1-2.6c-0.1-0.3-0.2-0.6-0.3-0.9c-0.7-2-1.6-4.1-3.2-5.8   c-0.9-0.9-1.8-1.8-2.9-2.6c-0.6-0.5-2-1.1-3.1-1.3c-0.7-1.6-1.9-2.6-3.4-3c-0.5-0.1-1.1-0.2-1.7-0.2c-1.8,0-3.4,0.8-4.5,1.4   c-0.7-0.1-1.4-0.2-2.1-0.3c-1.3-0.2-2.6-0.3-4-0.3c-0.3,0-0.6,0-0.8,0c-5.2,0.3-9.9,2-13.6,5c-3,2.4-5.7,5.9-7.9,10.2   C4.4,36.2,3,40.3,2,44.7c-0.6,2.7-1.1,5.1-1.2,7.7c-0.1,2.6,0.5,5.2,1.5,7.7c0.9,2.1,2,3.9,3.5,5.4c1.3,1.4,2.9,2.6,5.2,3.8   c1.2,0.7,2.4,1.6,3.6,2.4c1.6,1.2,3.3,2.4,5.3,3.3c1.6,0.7,3.3,1,5.3,1.1c0.5,0,1.1,0,1.7-0.1c0.5,0,1-0.1,1.5-0.1   c0.9,0,1.6,0.1,2.1,0.3c0.2,0.2,0.5,0.4,0.7,0.6c1.4,1.2,3.2,2.3,5.3,3.1c2.4,1,5,1.7,7.7,2.3c3,0.6,6,1,8.9,1   c2.4,0,4.8-0.2,7.1-0.7c2.5-0.5,4.7-1.3,6.6-2.4c1.8-1,3.5-2.4,5.1-4.1c0.6-0.7,1.2-1.4,1.8-2.2c8.9-1,17.8-6.5,22.2-13.7   c2.2-3.6,3.4-7.8,3.5-12C99.3,44.2,98.5,39.9,96.8,35.8z M27.4,74.6c-0.5,0-1,0-1.5,0c-0.7,0-1.3,0-2-0.1c-1.9-0.1-4-0.9-6.2-2.4   c-0.8-0.5-1.6-1.1-2.3-1.7c-1-0.8-2.1-1.6-3.3-2.3C10.2,67.1,8.5,66,7,64.5c-3.2-3.2-4.9-8-4.6-12.8c0.1-2.6,0.7-5.1,1.3-7.5   c0.5-2,1.1-4,1.8-5.9C7.1,33.8,9.2,30,11.7,27c3-3.6,6.8-6.1,10.9-7.2c1.9-0.5,3.9-0.8,5.9-0.8c0.5,0,1.1,0,1.6,0.1   c0.9,0.1,1.9,0.2,2.8,0.3c-0.2,0.2-0.2,0.5-0.1,0.7c0.1,0.3,0.4,0.5,0.7,0.5c0.2,0,0.4-0.1,0.5-0.2c1.5-1.4,3.4-2.2,5-2.2   c0.4,0,0.8,0,1.2,0.1c2.9,0.7,3.1,4.2,3,5.3c0,0.2,0.1,0.4,0.2,0.5c0.1,0.1,0.3,0.2,0.5,0.2c0.4,0,0.8-0.3,0.8-0.7   c0-0.7,0-1.4-0.1-2c0.5,0.2,1,0.4,1.3,0.5c0.7,0.4,1.3,1,2.2,1.8c0.5,0.5,1.1,1.1,1.7,1.8c0.8,1,1.3,2.3,1.7,3.2   c0.3,0.7,0.5,1.4,0.8,2c0.2,0.5,0.3,1,0.5,1.4c0.3,0.8,0.6,1.6,1,2.3c0.1,0.3,0.2,0.5,0.4,0.8c0.9,2.1,1.8,4.3,2.3,6.7   c0.4,2.2,0.3,4.2-0.4,6c-1.9,0.4-3.9,0.8-6.3,1c-0.5,0.1-1,0.1-1.5,0.2c-1.3,0.1-2.6,0.3-3.9,0.5c-1.6,0.2-3.2,0.5-4.7,0.8   l-1.3,0.3c-1.4,0.3-2.8,0.6-4.2,1c-0.3,0.1-0.6,0.2-1,0.2c-0.5,0.1-1,0.2-1.5,0.4c-0.5,0.2-0.9,0.4-1.4,0.4c-0.2,0-0.3,0-0.5,0.1   c-0.4,0-0.7,0.1-1.1,0.2c-0.2,0.1-0.3,0.2-0.4,0.3c-1.4,2.1-1.6,4.5-1.8,6.8l0,0.4c0,0.5-0.1,1-0.2,1.5c-0.1,0.6-0.1,1.3-0.2,1.9   c-0.1,1,0,2,0.1,3c0.3,2.7,1.2,5.3,2.7,7.4c-0.2,0-0.4,0-0.6,0C28,74.6,27.7,74.7,27.4,74.6z M63.5,47.5c1-0.4,2-0.7,3.1-0.9   c1-0.2,2.1-0.2,3.1-0.3l0.5,0c1.2-0.1,2.5-0.1,3.8-0.4c0.2,0,0.5-0.1,0.8-0.1c0.5,0,0.9-0.1,1.4-0.2c0.1,0.9,0.2,1.7,0.4,2.6   c0.2,1.4,0.5,2.9,0.4,4.3c-0.1,2.4-0.6,4.9-1.7,8.2c-0.7,2.1-1.6,4.6-3,6.7c-0.1,0.1-0.2,0.3-0.3,0.4c-1-1.5-2.2-2.8-3.2-4   l-0.3-0.3c-0.6-0.6-1.2-1.3-1.7-2c-0.1-0.1-0.2-0.2-0.3-0.4c-0.4-0.5-0.9-1.1-1.4-1.6c-1-0.9-2-1.7-3.1-2.5   c-0.3-0.2-0.6-0.4-0.9-0.7c-1.2-0.9-2.4-1.8-3.2-3.1c0.1-0.2,0.2-0.3,0.2-0.5c0-0.1,0.1-0.2,0.1-0.2c1.6,0.1,3.4,0.3,5.3,0.7   c0.8,0.2,1.7,0.4,2.5,0.6c0.7,0.2,1.4,0.4,2.1,0.5l0.7,0.2c1,0.2,2,0.5,3,0.8c0.5,0.1,1.1,0.3,1.6,0.6c0.3,0.1,0.6,0.3,0.7,0.5   c0.1,0.2,0.4,0.4,0.6,0.4c0.3,0,0.5-0.2,0.7-0.4c0.1-0.2,0.1-0.5,0-0.7c-0.5-0.9-1.7-1.3-2.6-1.6l-0.2-0.1   c-1.1-0.4-2.3-0.7-3.5-0.9l-0.5-0.1c-0.7-0.2-1.5-0.4-2.2-0.6c-0.8-0.2-1.6-0.4-2.5-0.6c-2-0.5-3.8-0.7-5.5-0.8   c0-0.4-0.1-0.8-0.4-1.1c-0.1-0.2-0.3-0.3-0.5-0.3c-0.3,0-0.6,0.2-0.7,0.5c-0.1,0.3-0.1,0.6,0.1,0.8c0.1,0.1,0.1,0.3-0.3,1.3   c-0.3,0.8-0.8,1.4-1.4,2c-0.3,0.3-0.7,0.4-1.2,0.4c-1.4,0-3.3-1.1-3.6-1.3c0,0,0,0,0,0c-0.1,0-0.1-0.1-0.1-0.2   c0-0.1-0.1-0.2-0.1-0.3c0-0.1,0-0.1-0.1-0.2c0,0,0-0.1,0-0.1c0,0,0-0.1,0-0.1l0,0c0-0.1,0-0.2,0-0.3c0-0.2,0.1-0.4,0.1-0.6   c0-0.1,0.1-0.3,0.1-0.4c0.1-0.1,0.1-0.3,0-0.4c1.1-0.1,2.3-0.3,3.4-0.5c3-0.5,5.9-1.4,8.3-2.2C62.6,47.8,63.1,47.6,63.5,47.5z    M60.1,76.4c-0.9-1.9-1.5-4-1.6-6.6c-0.1-0.9-0.1-1.8-0.1-2.7l0-0.6c0-0.1,0-0.3,0-0.4c0-0.8,0-1.6-0.2-2.4   c-0.3-1.3-0.8-2.5-1.3-3.8c-0.1-0.3-0.2-0.6-0.4-0.9c-0.3-0.7-0.5-1.4-0.7-2l0-0.1c-0.1-0.2-0.2-0.6-0.2-0.8   c0.1-0.1,0.3-0.2,0.4-0.2c0.4-0.3,0.7-0.6,1-1c1.2,1.5,2.7,2.6,4.2,3.7c0.9,0.6,1.8,1.3,2.6,2c0.6,0.6,1.2,1.2,1.6,1.8   c0.6,0.7,1.3,1.5,1.9,2.2l0.3,0.3c1.2,1.4,2.5,2.8,3.5,4.4c-1,1.2-2.1,2.3-3.4,3.4c-2.4,2-4.9,3.4-7.4,4.3   C60.2,76.6,60.1,76.5,60.1,76.4z M48.7,52c-1.1,0.4-2.2,0.8-3.3,1.2c-1.7,0.6-3.5,1.2-5.2,1.9c-2.6,1.1-5.5,2.4-7.5,4.7   c0-0.1,0-0.1,0-0.2l-0.1-0.3c-0.1-0.5-0.2-1.1-0.4-1.7c-0.1-0.3-0.2-0.6-0.3-0.8c0-0.1-0.1-0.2-0.1-0.2c0-0.1,0-0.1-0.1-0.2   c0-0.1-0.1-0.2-0.1-0.3c0,0,0-0.1-0.1-0.1c-0.1-0.1-0.1-0.3-0.2-0.5c-0.1-0.3-0.2-0.5-0.3-0.7c-0.1-0.2-0.2-0.4-0.4-0.5   c0.3-0.1,0.7-0.1,1-0.2c0.9-0.2,1.7-0.3,2.3-0.5c1.1-0.4,2.2-0.7,3.4-1c2.8-0.6,5.4-1.1,8-1.5c1-0.1,2-0.2,3-0.3   c0.2,0,0.3,0,0.5-0.1C48.8,51.2,48.7,51.6,48.7,52z M33.3,61.2c0.9-1.2,2.2-2.1,3.1-2.6c1.2-0.7,2.6-1.4,4.5-2.2   c1.6-0.6,3.3-1.2,4.9-1.8c1-0.3,2-0.7,3.1-1.1c0.1,0.1,0.1,0.2,0.2,0.3c0.1,0.1,0.1,0.2,0.2,0.3c0.1,0.4,0.4,0.6,0.7,0.7   c0,0,0.1,0,0.1,0.1l0.1,0c0.5,0.3,1,0.6,1.5,0.8c-0.2,0.1-0.3,0.2-0.4,0.4c-1,2-2.2,3.9-3.4,5.8c-2,3.2-4.1,6.5-5.2,10.2   c-0.8-0.7-1.5-1.4-2.2-2.1c-0.5-0.5-1-1-1.5-1.5c-1.6-1.5-3.1-3-4.5-4.7c-0.6-0.8-1-1.4-1.2-2.1c0-0.1-0.1-0.2-0.1-0.3   C33.1,61.4,33.2,61.4,33.3,61.2z M49.1,62.7c1.2-1.9,2.4-3.8,3.5-5.9c0.1-0.2,0.1-0.5,0-0.7c0.5,0.2,1,0.2,1.5,0.2   c0,0.2,0.1,0.5,0.2,0.7c0.2,0.7,0.4,1.4,0.7,2l0,0.1c0.1,0.3,0.3,0.7,0.4,1c0.5,1.2,1,2.4,1.3,3.6c0.2,0.7,0.2,1.4,0.2,2.2   c0,0.2,0,0.3,0,0.5l0,0.6c0,1,0,2,0.1,3c0.2,2.7,0.8,5.1,1.8,7.1c0,0,0,0.1,0.1,0.1c-1.3,0.3-2.5,0.5-3.8,0.6c-0.1,0-0.2,0-0.4,0   c-3.6,0-7.3-1.5-10.9-4.4C44.8,69.5,47,66,49.1,62.7z M80,53.2c1.1,0.2,2.3,0.4,3.4,1c-0.6,0.8-1.2,1.5-1.7,2.2   c-0.5,0.6-1,1.2-1.5,1.9C80.3,56.7,80.2,55,80,53.2z M58.3,35.5c2.9-2.6,5.9-5.2,9.2-7.2c0.8-0.5,1.6-0.9,2.4-1.2   c0.8,0.6,1.2,1.7,1.4,2.4c0.4,1.3,0.5,2.6,0.5,3.8c0.1,1.1,0,2.3,0,3.4c0,1.4,0,2.8,0.1,4.2c0,0.4,0.4,0.7,0.8,0.7   c0.2,0,0.4-0.1,0.6-0.2c0.1-0.1,0.2-0.3,0.2-0.5c-0.1-1.4-0.1-2.8-0.1-4.2c0-1.2,0-2.5,0-3.8c-0.1-2.3-0.4-4.9-1.9-6.5   c0.6-0.2,1.2-0.4,1.9-0.5c1.9-0.4,3.9-0.5,5.9-0.4c2.1,0.2,4,0.7,5.6,1.5c1.5,0.8,2.6,2,3.4,3.6c0.8,1.5,1.3,3.4,1.5,5.6   c0.2,2,0.2,4-0.1,5.9c-0.6,3.5-2.4,6.6-4.2,9.2c-0.3,0.5-0.7,1-1.1,1.6c-1.4-0.8-3.1-1.1-4.6-1.3c-0.4-2.3-1.1-4.7-2.1-7.4   c-0.1-0.3-0.4-0.5-0.7-0.5c0,0-0.1,0-0.1,0c-0.2,0-0.4,0-0.6,0.2c-0.2,0.2-0.7,0.2-1.2,0.3c-0.3,0-0.6,0-0.9,0.1   c-0.9,0.2-1.7,0.3-2.7,0.3c-0.5,0-0.9,0.1-1.4,0.1c-1.4,0.1-2.8,0.1-4.2,0.5c-0.8,0.2-1.7,0.5-2.4,0.8c-0.4,0.1-0.7,0.3-1.1,0.4   c-1.5,0.5-2.8,0.9-4,1.3c-0.1,0-0.3,0.1-0.4,0.1c0.5-1.9,0.5-3.8,0.2-5.7c0.5,0.2,1,0.6,1.5,0.9c0.9,0.6,1.9,1.2,3,1.4   c0,0,0.1,0,0.1,0c0,0,0,0,0,0c0.4,0,0.7-0.3,0.8-0.7c0-0.4-0.2-0.7-0.6-0.8c-1-0.2-1.8-0.7-2.7-1.3c-0.6-0.4-1.3-0.8-2.1-1.1   c-0.1,0-0.2-0.1-0.3-0.1c-0.1,0-0.1,0-0.2,0c-0.3-1.1-0.7-2.2-1.1-3.3C57.1,36.6,57.7,36,58.3,35.5z M89.7,28.3   c1.4,1.7,2.9,3.9,3.4,6.2c0.2,1.2,0.1,2.5-0.1,3.7c-0.1,1.2-0.4,2.5-0.8,4c-0.6,2.1-1.4,4.1-2.2,6l-0.5,1.2c-0.8,2-1.7,4.1-3,6   c-1.2,1.7-2.9,3-4.5,4.3c-0.7,0.6-1.4,1.1-2.1,1.7c0,0,0,0,0,0c1-1.4,2.1-2.8,3.1-4.1c2-2.5,4-5.2,5.7-8c1.3-2.2,2.1-4.2,2.4-6.1   c0.4-1.8,0.5-3.8,0.3-6c-0.2-3.4-1.2-7.9-4.3-10.5c-2.2-1.8-5.4-2.7-9.3-2.7c-0.7,0-1.5,0-2.2,0.1c-1.8,0.2-3.4,0.5-4.9,1   c-1.8,0.6-3.6,1.6-5.7,3c-2.7,1.8-5.2,4.1-7.7,6.2c-0.5,0.4-1,0.9-1.5,1.3c0-0.1-0.1-0.2-0.1-0.3c3.4-3.4,7-6.8,11.5-9.2   c3.7-2,8-3.1,12.2-3.1c0.1,0,0.2,0,0.3,0c2.1,0,3.9,0.4,5.4,1c1.8,0.8,3.1,2.4,4.4,4L89.7,28.3z M27.8,62.2c0-0.3,0.1-0.6,0.1-0.9   c0-0.3,0.1-0.7,0.1-1c0-0.4,0.1-0.7,0.1-1.1c0.1-0.8,0.2-1.5,0.3-2c0.2-0.7,0.4-1.3,0.6-1.9c0-0.1,0.1-0.1,0.1-0.2l0.2,0.2   c0.1,0.1,0.1,0.1,0.2,0.2c0,0,0.1,0.1,0.1,0.1c0,0,0.1,0.1,0.1,0.1c0.4,0.3,0.6,0.8,0.7,1.6c0,0,0,0.1,0,0.1c0,0,0,0.1,0,0.1   c0.2,0.7,0.4,1.5,0.5,2.2c0.1,0.4,0.2,0.8,0.2,1.2c0.3,1.2,0.6,2.1,1.2,2.8c0.6,0.9,1.4,1.8,2.4,2.9c1.1,1.1,2.2,2.2,3.3,3.3   c0.7,0.7,1.5,1.4,2.2,2.1c1.8,1.8,3.6,3.2,5.4,4.3c2,1.2,4.1,2,6.2,2.4c2.2,0.4,4.6,0.3,7-0.4c4.2-1.1,8.5-3.7,11.9-7.2   c1.5-1.6,2.8-3.3,3.7-5.2c1.1-2.2,1.9-4.7,2.5-6.8c0.7-2.4,1.1-4.4,1.2-6.3c0.4,2.7,0.4,5.1-0.1,7.4c0,0.1-0.1,0.3-0.1,0.4   c0,0,0,0,0,0c-0.5,2.4-1.6,4.7-2.6,6.6c-1.1,2-2.2,3.9-3.5,5.5c-2.8,3.7-6.4,6.3-10.3,7.5c-2.7,0.8-5.7,1.3-8.9,1.3   c-2.2,0-4.5-0.2-6.8-0.6c-2.5-0.4-5.1-1.1-7.7-2c-2.5-0.9-4.3-1.8-5.8-2.9c-2.9-2.1-4.7-5.3-5.1-9C27.5,65.7,27.7,64,27.8,62.2z    M86.1,68.1c-2.9,1.9-7.2,3.5-11.3,4.1c1.5-2.2,2.8-4.7,4-7.5c0-0.1,0.1-0.2,0.1-0.2c1-1.3,2.3-2.3,3.6-3.3   c0.3-0.2,0.6-0.5,0.9-0.7c1.6-1.3,3.3-2.8,4.6-4.7c1.2-1.7,2-3.7,2.7-5.6c0.2-0.4,0.3-0.8,0.5-1.2c1-2.5,2-4.9,2.7-7.5   c0.3-1.3,0.6-2.7,0.7-4c0.1-0.9,0.1-1.9,0-2.9c0,0.1,0.1,0.2,0.1,0.3c1.8,3.8,2.8,8.1,2.9,12.2c0.1,4.1-0.9,8.2-2.9,11.8   C92.8,62.5,89.7,65.7,86.1,68.1z"></path><path fill="url(#SvgjsLinearGradient1256)" d="M64.9,38.9c1.2,1,2.5,2.1,3.9,3.5c0.1,0.1,0.3,0.2,0.5,0.2c0,0,0,0,0,0c0.3,0,0.5-0.2,0.6-0.4   c0.1-0.3,0-0.5-0.1-0.7c-1.4-1.4-2.7-2.5-4-3.5c-1.5-1.2-2.9-2.4-4.5-4.1c-0.1-0.1-0.3-0.2-0.5-0.2c-0.3,0-0.5,0.2-0.6,0.4   c-0.1,0.2-0.1,0.5,0.1,0.7C61.9,36.5,63.4,37.7,64.9,38.9z"></path><path fill="url(#SvgjsLinearGradient1256)" d="M76.8,40.5c0.3,0,0.5-0.1,0.6-0.4c0.3-0.6,0.7-1.3,1-1.9c0.7-1.3,1.5-2.7,2.1-4.1c0.9-2,1.8-4.2,1.6-6.5   c0-0.4-0.4-0.7-0.8-0.7c-0.2,0-0.4,0.1-0.6,0.2c-0.1,0.1-0.2,0.3-0.2,0.6c0.2,2-0.6,4-1.5,6c-0.6,1.3-1.3,2.6-2,3.8   c-0.3,0.6-0.7,1.3-1,1.9c-0.1,0.2-0.1,0.5,0,0.7C76.2,40.4,76.5,40.5,76.8,40.5z"></path><path fill="url(#SvgjsLinearGradient1256)" d="M77.9,43.2c0.1,0.3,0.4,0.5,0.7,0.5h0c0.2,0,0.3-0.1,0.4-0.1c2.9-2.1,6.6-5,9.8-8.5   c0.2-0.2,0.3-0.5,0.1-0.8c-0.1-0.3-0.4-0.5-0.7-0.5c-0.2,0-0.4,0.1-0.5,0.2c-3.2,3.4-6.8,6.2-9.6,8.3   C77.9,42.5,77.7,42.9,77.9,43.2z"></path><path fill="url(#SvgjsLinearGradient1256)" d="M87.5,44.3C87.5,44.3,87.4,44.3,87.5,44.3c-0.6,0.1-1.2,0.1-1.8,0.2c-2.1,0.2-4.3,0.4-6.4,0.7   c-0.4,0.1-0.7,0.4-0.7,0.9c0,0.4,0.3,0.7,0.7,0.7c0,0,0,0,0,0c0,0,0.1,0,0.1,0c2.1-0.3,4.3-0.5,6.4-0.7c0.6-0.1,1.1-0.1,1.7-0.2   c0.4,0,0.7-0.4,0.7-0.8C88.2,44.6,87.9,44.3,87.5,44.3z"></path><path fill="url(#SvgjsLinearGradient1256)" d="M27.6,46c-0.4,0-0.8,0.3-0.8,0.8v0.3c0,0.4,0.3,0.8,0.8,0.8s0.8-0.3,0.8-0.8v-0.3C28.4,46.4,28,46,27.6,46z   "></path><path fill="url(#SvgjsLinearGradient1256)" d="M19.8,42.8c-0.2,0-0.4,0.1-0.6,0.3c-0.1,0.1-0.2,0.3-0.2,0.5c0,0.4,0.3,0.8,0.7,0.8c0.2,0,0.4-0.1,0.6-0.3   c0.1-0.1,0.2-0.3,0.2-0.5C20.5,43.1,20.2,42.8,19.8,42.8z"></path><path fill="url(#SvgjsLinearGradient1256)" d="M14.6,41.1l-0.3,0.3c-0.3,0.3-0.3,0.8,0,1.1c0.1,0.1,0.3,0.2,0.5,0.2c0.2,0,0.4-0.1,0.5-0.2l0.3-0.3   c0.1-0.1,0.2-0.3,0.2-0.5c0-0.2-0.1-0.4-0.2-0.5C15.4,40.8,14.9,40.8,14.6,41.1z"></path><path fill="url(#SvgjsLinearGradient1256)" d="M19.8,36.3c-0.2,0-0.4,0.1-0.6,0.3c-0.1,0.1-0.2,0.3-0.2,0.5c0,0.4,0.3,0.8,0.7,0.8c0.2,0,0.4-0.1,0.6-0.3   c0.1-0.1,0.2-0.3,0.2-0.5C20.5,36.6,20.2,36.3,19.8,36.3z"></path><path fill="url(#SvgjsLinearGradient1256)" d="M19.1,41.1C19.1,41.1,19.2,41.1,19.1,41.1c0.1,0,0.1,0,0.2,0c0,0,0,0,0,0c0.2,0,0.4-0.1,0.5-0.3   c0.1-0.1,0.2-0.3,0.2-0.5c0-0.4-0.3-0.7-0.7-0.8c-0.5-0.1-1,0.1-1.4,0.5c-0.2,0.2-0.3,0.5-0.2,0.8c0.1,0.3,0.4,0.5,0.7,0.5   c0.2,0,0.4-0.1,0.5-0.2C19,41.1,19,41.1,19.1,41.1z"></path><path fill="url(#SvgjsLinearGradient1256)" d="M28.1,41.4H28c-0.2,0-0.4,0.1-0.6,0.3c-0.1,0.1-0.2,0.3-0.2,0.5c0,0.4,0.3,0.8,0.7,0.8h0.2   c0.2,0,0.4-0.1,0.6-0.3c0.1-0.1,0.2-0.3,0.2-0.5C28.9,41.8,28.6,41.4,28.1,41.4z"></path><path fill="url(#SvgjsLinearGradient1256)" d="M23.8,37.7c-0.2,0-0.4,0.1-0.6,0.3c-0.1,0.1-0.2,0.3-0.2,0.5c0,0.4,0.3,0.8,0.7,0.8c0.2,0,0.4-0.1,0.6-0.3   c0.1-0.1,0.2-0.3,0.2-0.5C24.6,38,24.2,37.7,23.8,37.7z"></path><path fill="url(#SvgjsLinearGradient1256)" d="M16.3,35.4c-0.4,0-0.7,0.2-0.8,0.3c-0.2,0.1-0.2,0.3-0.3,0.5c0,0.2,0.1,0.4,0.2,0.6   c0.2,0.2,0.5,0.3,0.8,0.2c0.1,0,0.2,0.1,0.3,0.1c0.2,0,0.4-0.1,0.5-0.2c0.3-0.3,0.3-0.8,0-1.1C16.9,35.5,16.6,35.4,16.3,35.4z"></path><path fill="url(#SvgjsLinearGradient1256)" d="M12.2,37.3v-0.5c0-0.4-0.3-0.8-0.8-0.8c-0.4,0-0.8,0.3-0.8,0.8v0.5c0,0.4,0.3,0.8,0.8,0.8   C11.8,38.1,12.2,37.8,12.2,37.3z"></path><path fill="url(#SvgjsLinearGradient1256)" d="M19.8,33c0.1-0.1,0.2-0.3,0.2-0.5c0-0.4-0.3-0.8-0.7-0.8c-0.2,0-0.4,0.1-0.6,0.3c-0.1,0.1-0.2,0.3-0.2,0.5   c0,0.4,0.3,0.8,0.7,0.8C19.5,33.3,19.7,33.2,19.8,33z"></path><path fill="url(#SvgjsLinearGradient1256)" d="M16.3,31.1c0.4,0,0.8-0.3,0.8-0.8v-0.3c0-0.4-0.3-0.8-0.8-0.8s-0.8,0.3-0.8,0.8v0.3   C15.5,30.8,15.8,31.1,16.3,31.1z"></path><path fill="url(#SvgjsLinearGradient1256)" d="M24.6,23.4h-0.3c-0.4,0-0.8,0.3-0.8,0.8c0,0.4,0.3,0.8,0.8,0.8h0.3c0.4,0,0.8-0.3,0.8-0.8   C25.4,23.7,25,23.4,24.6,23.4z"></path><path fill="url(#SvgjsLinearGradient1256)" d="M19.2,26.8c0.2,0,0.4-0.1,0.6-0.3c0,0,0,0,0,0c0.4,0,0.7-0.4,0.7-0.8c0-0.4-0.3-0.8-0.8-0.8h0   c-0.4,0-0.8,0.2-1.1,0.5c-0.3,0.3-0.2,0.8,0,1C18.8,26.7,19,26.8,19.2,26.8z"></path><path fill="url(#SvgjsLinearGradient1256)" d="M26.8,23C26.8,23,26.8,23,26.8,23c0.2,0,0.4-0.1,0.5-0.2c0.1-0.1,0.2-0.1,0.4-0.1c0.4,0.1,0.9-0.2,0.9-0.7   c0-0.4-0.2-0.7-0.6-0.8c-0.7-0.1-1.3,0-1.8,0.5c-0.2,0.2-0.3,0.5-0.2,0.8C26.2,22.8,26.5,23,26.8,23z"></path><path fill="url(#SvgjsLinearGradient1256)" d="M31.8,41.8c-0.1,0.2,0,0.5,0.1,0.6c0.1,0.2,0.4,0.3,0.6,0.3h0c0.3,0,0.6-0.2,0.7-0.6c0-0.1,0.1-0.2,0.4-0.2   c0.4,0,0.7-0.3,0.7-0.8c0-0.4-0.3-0.7-0.7-0.7c0,0,0,0,0,0C32.7,40.5,32,41,31.8,41.8z"></path><path fill="url(#SvgjsLinearGradient1256)" d="M37,40.5c0.2,0,0.4-0.1,0.6-0.3c0.1-0.1,0.2-0.3,0.2-0.5c0-0.4-0.3-0.8-0.7-0.8c-0.2,0-0.4,0.1-0.6,0.3   c-0.1,0.1-0.2,0.3-0.2,0.5C36.3,40.2,36.6,40.5,37,40.5z"></path><path fill="url(#SvgjsLinearGradient1256)" d="M32.2,35.9c0.4,0,0.8-0.3,0.8-0.8v-0.5c0-0.4-0.3-0.8-0.8-0.8s-0.8,0.3-0.8,0.8v0.5   C31.4,35.6,31.8,35.9,32.2,35.9z"></path><path fill="url(#SvgjsLinearGradient1256)" d="M37.2,33.7l0.5,0.3c0.1,0.1,0.2,0.1,0.4,0.1c0.3,0,0.5-0.1,0.7-0.4c0.1-0.2,0.1-0.4,0.1-0.6   c-0.1-0.2-0.2-0.4-0.4-0.4l-0.5-0.3c-0.1-0.1-0.2-0.1-0.4-0.1c-0.3,0-0.5,0.1-0.7,0.4c-0.1,0.2-0.1,0.4-0.1,0.6   C36.9,33.5,37,33.6,37.2,33.7z"></path><path fill="url(#SvgjsLinearGradient1256)" d="M41.6,41.1h0.5c0.4,0,0.8-0.3,0.8-0.8s-0.3-0.8-0.8-0.8h-0.5c-0.4,0-0.8,0.3-0.8,0.8S41.2,41.1,41.6,41.1z"></path><path fill="url(#SvgjsLinearGradient1256)" d="M28,36.3c0.2,0,0.4-0.1,0.6-0.3c0.1-0.1,0.2-0.3,0.2-0.5c0-0.4-0.3-0.8-0.7-0.8c-0.2,0-0.4,0.1-0.6,0.3   c-0.1,0.1-0.2,0.3-0.2,0.5C27.3,36,27.6,36.3,28,36.3z"></path><path fill="url(#SvgjsLinearGradient1256)" d="M47.3,30.6c0.4,0,0.8-0.3,0.8-0.8v-0.3c0-0.4-0.3-0.8-0.8-0.8c-0.4,0-0.8,0.3-0.8,0.8v0.3   C46.5,30.2,46.9,30.6,47.3,30.6z"></path><path fill="url(#SvgjsLinearGradient1256)" d="M38.7,28.7V29c0,0.4,0.3,0.8,0.8,0.8s0.8-0.3,0.8-0.8v-0.3c0-0.4-0.3-0.8-0.8-0.8S38.7,28.3,38.7,28.7z"></path><path fill="url(#SvgjsLinearGradient1256)" d="M38.4,25.2c0.2,0,0.4-0.1,0.6-0.3c0.1-0.1,0.2-0.3,0.2-0.5c0-0.4-0.3-0.8-0.7-0.8c-0.2,0-0.4,0.1-0.6,0.3   c-0.1,0.1-0.2,0.3-0.2,0.5C37.6,24.8,37.9,25.2,38.4,25.2z"></path><path fill="url(#SvgjsLinearGradient1256)" d="M32.2,23c0.2,0,0.4-0.1,0.6-0.3c0.1-0.1,0.2-0.3,0.2-0.5c0-0.4-0.3-0.8-0.7-0.8c-0.2,0-0.4,0.1-0.6,0.3   c-0.1,0.1-0.2,0.3-0.2,0.5C31.4,22.7,31.7,23,32.2,23z"></path><path fill="url(#SvgjsLinearGradient1256)" d="M28.3,28.4c-0.3,0.3-0.3,0.8,0,1.1c0.1,0.1,0.3,0.2,0.5,0.2c0.2,0,0.4-0.1,0.5-0.2l0.3-0.3   c0.1-0.1,0.2-0.3,0.2-0.5c0-0.2-0.1-0.4-0.2-0.5c-0.3-0.3-0.8-0.3-1.1,0L28.3,28.4z"></path><path fill="url(#SvgjsLinearGradient1256)" d="M9,49c-0.2,0-0.4,0.1-0.6,0.3c-0.1,0.1-0.2,0.3-0.2,0.5c0,0.4,0.3,0.8,0.7,0.8c0.2,0,0.4-0.1,0.6-0.3   c0.1-0.1,0.2-0.3,0.2-0.5C9.7,49.3,9.4,49,9,49z"></path><path fill="url(#SvgjsLinearGradient1256)" d="M14.5,48.7c-0.2,0-0.4,0.1-0.6,0.3c-0.1,0.1-0.2,0.3-0.2,0.5c0,0.4,0.3,0.8,0.7,0.8c0.2,0,0.4-0.1,0.6-0.3   c0.1-0.1,0.2-0.3,0.2-0.5C15.3,49,14.9,48.7,14.5,48.7z"></path><path fill="url(#SvgjsLinearGradient1256)" d="M11.7,47.6c-0.2,0-0.4,0.1-0.6,0.3C11.1,48,11,48.2,11,48.4c0,0.4,0.3,0.8,0.7,0.8c0.2,0,0.4-0.1,0.6-0.3   c0.1-0.1,0.2-0.3,0.2-0.5C12.5,47.9,12.2,47.6,11.7,47.6z"></path><path fill="url(#SvgjsLinearGradient1256)" d="M9.8,40.9c-0.4,0-0.8,0.3-0.8,0.8v0.3c0,0.4,0.3,0.8,0.8,0.8s0.8-0.3,0.8-0.8v-0.3   C10.6,41.2,10.2,40.9,9.8,40.9z"></path><path fill="url(#SvgjsLinearGradient1256)" d="M20,47.6h-0.5c-0.4,0-0.8,0.3-0.8,0.8s0.3,0.8,0.8,0.8H20c0.4,0,0.8-0.3,0.8-0.8S20.5,47.6,20,47.6z"></path><path fill="url(#SvgjsLinearGradient1256)" d="M23.9,28.6c-0.5,0.1-1,0.5-1.1,1.1c-0.1,0.4,0.1,0.8,0.5,0.9c0.1,0,0.1,0,0.2,0c0,0,0,0,0,0   c0.3,0,0.7-0.2,0.7-0.6c0.2,0,0.3-0.2,0.4-0.3c0.1-0.2,0.2-0.4,0.1-0.6C24.7,28.8,24.3,28.6,23.9,28.6z"></path><path fill="url(#SvgjsLinearGradient1256)" d="M83.4,66.3c-0.4,0-0.8,0.3-0.8,0.8v0.3c0,0.4,0.3,0.8,0.8,0.8c0.4,0,0.8-0.3,0.8-0.8V67   C84.2,66.6,83.8,66.3,83.4,66.3z"></path><path fill="url(#SvgjsLinearGradient1256)" d="M93.9,56c-0.4,0-0.8,0.3-0.8,0.8V57c0,0.4,0.3,0.8,0.8,0.8c0.4,0,0.8-0.3,0.8-0.8v-0.3   C94.6,56.3,94.3,56,93.9,56z"></path><path fill="url(#SvgjsLinearGradient1256)" d="M88.6,58.9c-0.2,0-0.4,0.1-0.6,0.3c-0.1,0.1-0.2,0.3-0.2,0.5c0,0.4,0.3,0.8,0.7,0.8c0.2,0,0.4-0.1,0.6-0.3   c0.1-0.1,0.2-0.3,0.2-0.5C89.3,59.2,89,58.9,88.6,58.9z"></path><path fill="url(#SvgjsLinearGradient1256)" d="M94.2,52.1c0.2,0,0.4-0.1,0.6-0.3c0.1-0.1,0.2-0.3,0.2-0.5c0-0.4-0.3-0.8-0.7-0.8c-0.2,0-0.4,0.1-0.6,0.3   c-0.1,0.1-0.2,0.3-0.2,0.5C93.5,51.8,93.8,52.1,94.2,52.1z"></path><path fill="url(#SvgjsLinearGradient1256)" d="M83.6,62.1c-0.4,0-0.7,0.3-0.8,0.7c0,0,0,0,0,0c-0.2,0.1-0.2,0.3-0.3,0.5c0,0.2,0.1,0.4,0.2,0.6   c0.1,0.1,0.3,0.2,0.5,0.2h0c0.2,0,0.4-0.1,0.5-0.2c0.3-0.3,0.5-0.7,0.5-1.1c0-0.2-0.1-0.4-0.2-0.5C83.9,62.2,83.8,62.1,83.6,62.1z"></path><path fill="url(#SvgjsLinearGradient1256)" d="M94.5,47.8c0.4,0,0.8-0.3,0.8-0.8v-0.3c0-0.4-0.3-0.8-0.8-0.8c-0.4,0-0.8,0.3-0.8,0.8v0.3   C93.8,47.5,94.1,47.8,94.5,47.8z"></path></g></g><g id="SvgjsG1253" featurekey="VGK2BT-0" transform="matrix(1.5653991748787064,0,0,1.5653991748787064,118.01050506014997,9.918017096950797)" fill="url(#SvgjsLinearGradient1260)"><path d="M16.542 6.441000000000001 c0.15254 0 0.27168 0.11881 0.27168 0.28847 l0 12.983 c0 0.15254 -0.10169 0.28797 -0.27136 0.28797 l-1.339 0 c-0.18644 0 -0.28814 -0.11864 -0.28814 -0.28814 l0 -9.339 l-5.5254 9.0339 c-0.084746 0.13559 -0.16949 0.20339 -0.30508 0.20339 l-0.08458 0 c-0.13559 0 -0.22034 -0.067797 -0.30508 -0.20339 l-5.5085 -9.0339 l0 9.339 c0 0.15254 -0.11881 0.28797 -0.28831 0.28797 l-1.339 0 c-0.16949 0 -0.28831 -0.11864 -0.28831 -0.28814 l0 -13 c0 -0.15254 0.10186 -0.27119 0.27119 -0.27119 l1.1525 0 c0.15254 0 0.25424 0.050847 0.33898 0.18644 l6.0169 9.8307 l6.0168 -9.8307 c0.067797 -0.13559 0.16949 -0.18644 0.33898 -0.18644 l1.1356 0 z M27.203345762711866 11.6102 c0.20339 0 0.30525 0.13543 0.20356 0.32203 l-3.3559 6.8983 c-1.678 3.4914 -3.1525 5.5083 -3.9492 6.288 c-0.15254 0.13559 -0.33898 0.067797 -0.50847 -0.10169 l-0.72881 -0.72881 c-0.18644 -0.16949 -0.15254 -0.33898 0.016949 -0.54237 c1.0339 -1.1695 2.3729 -3.1017 3.2373 -5.0507 l-3.5254 -6.7797 c-0.084746 -0.16949 0 -0.30508 0.18644 -0.30508 l1.4915 0 c0.15238 0 0.23712 0.067797 0.30492 0.18661 l2.4915 5.0846 l2.3729 -5.0678 c0.067797 -0.13559 0.16949 -0.20339 0.32203 -0.20339 l1.4407 0 z M40.99997288135593 12.7798 c1.4068 0.64407 2.2881 1.9324 2.2881 3.4408 c0 2.2373 -1.9661 3.7795 -4.0508 3.7795 l-5.4746 0 c-0.16949 0 -0.28814 -0.11864 -0.28814 -0.28814 l0 -13 c0 -0.15254 0.10169 -0.27119 0.27119 -0.27119 l5.051 0 c2.1524 0 3.7625 1.8814 3.7625 3.5763 c0 1.2373 -0.66102 2.2034 -1.5593 2.7627 z M38.42377288135593 12.2207 c2.8136 0 2.8644 -3.9322 0.033898 -3.9322 l-3.0678 0 l0 3.9322 l3.0339 0 z M38.79657288135593 18.1529 c3.322 0 3.339 -4.1356 -0.033898 -4.1356 l-3.3729 0 l0.016949 4.1356 l3.3898 0 z M52.4235406779661 19.62712 c-0.22034 -1.661 -0.2368 -3.2032 -0.16916 -4.8302 c0.084746 -2 -1.0169 -3.2881 -3.0847 -3.2881 c-1.3559 0 -2.7627 0.40678 -3.5932 0.86441 c-0.15254 0.084746 -0.25424 0.23712 -0.18644 0.38966 l0.42373 0.98305 c0.067797 0.16949 0.18644 0.22034 0.40678 0.11864 c1.0847 -0.49153 1.9661 -0.72881 2.8305 -0.72881 c0.91525 0 1.4576 0.35593 1.4237 1.322 c-3.1356 0.5422 -5.5254 1.1015 -5.5254 3.3049 c0 1.4746 1.0678 2.3219 2.7966 2.3219 c1.4408 0 2.1864 -0.44051 2.8983 -0.98288 c0.08458 0.50847 0.23712 0.89831 0.5761 0.89831 l1.0169 0 c0.15238 0 0.20322 -0.18644 0.18627 -0.37288 z M48.06794067796611 18.627299999999998 c-0.69492 0 -1.2373 -0.23729 -1.2373 -0.88136 c0 -1.0339 1.8981 -1.3729 3.6102 -1.7288 c-0.016949 0.55932 -0.016949 1.3051 0 1.7966 c-0.55932 0.42373 -1.5085 0.81356 -2.3729 0.81356 z M62.32183220338983 19.44085 c0.22034 0.23729 0.11848 0.54271 -0.20356 0.54271 l-1.3729 0 c-0.15254 0 -0.23729 -0.033898 -0.33898 -0.15254 l-4.0339 -4.0339 l0 3.9322 c0 0.15238 -0.11864 0.27102 -0.27119 0.27102 l-1.2881 0 c-0.16949 0 -0.28814 -0.11864 -0.28814 -0.27102 l0 -11.848 c0 -0.57627 -0.084746 -0.83051 -0.13559 -1.0847 c-0.033732 -0.18661 0.017115 -0.3561 0.18661 -0.3561 l1.1525 0 c0.38983 0 0.64407 0.25424 0.64407 0.61017 l0 8.2881 l3.4068 -3.5932 c0.10169 -0.10169 0.20339 -0.13559 0.32203 -0.13559 l1.3559 0 c0.27119 0 0.42373 0.33898 0.22034 0.55932 l-3.339 3.4068 z M70.66101016949153 16.4915 c0.61 0 1.0336 -0.30508 1.0336 -1.0169 c0 -2.0847 -1.6102 -3.9831 -4.0847 -3.9831 c-2.3559 0 -4.2034 1.8644 -4.2034 4.3051 c0 2.5422 1.9322 4.288 4.3051 4.288 c1.5085 0 2.6949 -0.61017 3.4237 -1.5932 c0.10186 -0.13559 0.067963 -0.23729 -0.033568 -0.37288 l-0.32203 -0.42373 c-0.13559 -0.16933 -0.27119 -0.15254 -0.44085 -0.050847 c-0.5422 0.44068 -1.4405 0.81373 -2.4236 0.81373 c-1.3898 0 -2.3729 -0.84746 -2.5593 -1.9661 l5.3051 0 z M65.35581016949153 15.050799999999999 c0.067797 -0.81356 0.83051 -1.8644 2.2203 -1.8644 c1.4068 0 2.1356 1.0678 2.1864 1.8644 l-4.4068 0 z M79.27103389830509 12.034099999999999 c0.18644 0.11864 0.23729 0.22017 0.11848 0.40661 l-0.69475 1.0169 c-0.084746 0.11864 -0.20339 0.15254 -0.35593 0.11864 c-0.35593 -0.16949 -0.66102 -0.32203 -1.2203 -0.32203 s-1.4407 0.23729 -1.9153 1.2881 l0 5.1866 c0 0.15238 -0.10169 0.27102 -0.25424 0.27102 l-1.339 0 c-0.15254 0 -0.25424 -0.11864 -0.25424 -0.27102 l0 -7.8476 c0 -0.15238 0.11864 -0.27119 0.25424 -0.27119 l0.9322 0 c0.40678 0 0.66102 0.42373 0.66102 0.72881 l0 0.11881 c0.59322 -0.54237 1.3051 -0.91525 2.2373 -0.91525 c0.86441 0 1.5085 0.27119 1.8305 0.49153 z M89.28809152542374 11.6102 c0.20339 0 0.30525 0.13543 0.20356 0.32203 l-3.3559 6.8983 c-1.678 3.4914 -3.1525 5.5083 -3.9492 6.288 c-0.15254 0.13559 -0.33898 0.067797 -0.50847 -0.10169 l-0.72881 -0.72881 c-0.18644 -0.16949 -0.15254 -0.33898 0.016949 -0.54237 c1.0339 -1.1695 2.3729 -3.1017 3.2373 -5.0507 l-3.5254 -6.7797 c-0.084746 -0.16949 0 -0.30508 0.18644 -0.30508 l1.4915 0 c0.15238 0 0.23712 0.067797 0.30492 0.18661 l2.4915 5.0846 l2.3729 -5.0678 c0.067797 -0.13559 0.16949 -0.20339 0.32203 -0.20339 l1.4407 0 z M104.54241864406781 8.288 l-6.7288 0 l0 4.1356 l3.8983 0 c0.16949 0 0.28814 0.11864 0.28814 0.28814 l0 1.2712 c0 0.18644 -0.11864 0.28814 -0.28814 0.28814 l-3.8983 0 l0.016784 3.8814 l6.712 0 c0.16949 0 0.28814 0.11864 0.28814 0.28814 l0 1.2712 c0 0.16949 -0.11864 0.28814 -0.28814 0.28814 l-8.3559 0 c-0.16949 0 -0.28831 -0.11864 -0.28831 -0.28814 l0 -13 c0 -0.15254 0.10186 -0.27119 0.27119 -0.27119 l8.3731 0 c0.16949 0 0.28814 0.11864 0.28814 0.27119 l0 1.3051 c0 0.16949 -0.11864 0.27119 -0.28814 0.27119 z M117.11820338983051 19.67797 c0.11864 0.16949 0.034064 0.32203 -0.1861 0.32203 l-1.2544 0 c-0.37288 0 -0.67814 -0.33881 -0.81356 -0.5422 l-2.6441 -3.8983 l-3.3559 0 l0 4.1525 c0 0.18644 -0.10169 0.28797 -0.27119 0.28797 l-1.3729 0 c-0.16949 0 -0.27119 -0.10153 -0.27119 -0.28797 l0 -13 c0 -0.15254 0.10169 -0.27119 0.27119 -0.27119 l5.2203 0 c2.9659 0 4.5592 2.5254 4.5592 4.5592 c0 1.6949 -1.0168 3.5934 -2.9322 4.2881 z M108.86460338983052 8.288 l0 5.4237 l3.3559 0 c1.9153 0 2.8644 -1.3729 2.8644 -2.7458 c0 -1.3559 -0.9661 -2.678 -2.8644 -2.678 l-3.3559 0 z M124.38965423728814 6.441000000000001 c2.9492 0 4.6442 2.4915 4.6442 4.5424 c0 2.1695 -1.6949 4.5763 -4.6441 4.5763 l-3.3729 0 l0 4.1525 c0 0.18644 -0.10153 0.28797 -0.27119 0.28797 l-1.3729 0 c-0.16949 0 -0.27119 -0.10153 -0.27119 -0.28797 l0 -13 c0 -0.15254 0.10169 -0.27119 0.27119 -0.27119 l5.0168 0 z M124.23745423728813 13.712 c1.8644 0 2.8983 -1.3729 2.8983 -2.7288 c0 -1.339 -1.0339 -2.6949 -2.8983 -2.6949 l-3.2203 0 l0 5.4237 l3.2203 0 z"></path></g></svg>